<?xml version="1.0" encoding="utf-8"?>
<!-- Generator: Adobe Illustrator 22.1.0, SVG Export Plug-In . SVG Version: 6.00 Build 0)  -->
<svg version="1.1" id="Layer_1" xmlns="http://www.w3.org/2000/svg" xmlns:xlink="http://www.w3.org/1999/xlink" x="0px" y="0px"
	 viewBox="0 0 400 400" style="enable-background:new 0 0 400 400;" xml:space="preserve">
<style type="text/css">
	.st0{fill:#895D3F;}
	.st1{fill:#724C33;}
	.st2{fill:#EFEA54;}
	.st3{fill:#15F971;}
	.st4{fill:#C9C35D;}
	.st5{fill:#FFF87B;}
	.st6{fill:#4DF88D;}
</style>
<g>
	<g>
		<path class="st0" d="M276.4,160.9c-0.9-1.8-2-3.8-3.7-5c-0.9-0.6-4.2-1.4-4.3-2.7c0-0.4-0.7-0.6-0.8-0.1c-0.4,2.5,0.9,4.9,1.5,7.3
			c0.5,2.1,1.5,4,1.9,6.1c0.6,2.6,0.3,5.4,0.2,8c-0.2,4.7-0.9,9.5-2.8,13.8c-0.2,0.5-0.5,1-0.8,1.5c0,0,0-0.1,0-0.1
			c-0.3-4.6-1.4-9.1-3.2-13.3c-1.6-3.6-3.4-7.5-6.4-10.3c-1.4-1.3-2.9-2.6-4.4-3.7c-0.9-0.6-5.2-3.1-5.9-1.6
			c-0.5,1.2,3.2,5.4,3.8,6.5c2.8,4.5,5.4,9.3,6.9,14.4c1.1,3.8,1.7,7.7,1.8,11.6c0.1,2,0.1,3.9-0.5,5.8c-0.1,0.4-0.2,0.7-0.4,1.1
			c-2,5.2-7.3,8.5-11.3,11.9c-5.5,4.7-11.7,8.5-17.7,12.4c-4.7,3.1-9.3,6.3-13.7,9.8c-2.2,1.8-4.4,3.6-6.6,5.5
			c-1.8,1.6-3.9,4.5-6.1,5.4c-1.6-2.3-3-4.6-4.9-6.6c-0.4-0.5-0.8-0.9-1.1-1.5c0-0.1-0.1-0.1-0.1-0.2c-1.1-2.6,3.1-8.3,4.5-10.4
			c2.3-3.4,5-6.6,7.7-9.7c5.1-5.9,9.1-12.4,13.6-18.8c2.7-4,5.3-8.2,6.3-12.9c0.9-3.9,0.8-10.3-2.5-13.1c-0.1-0.1-1,5.9-1,6.2
			c-0.4,2.7-1.1,5.3-2.2,7.7c-2.1,4.8-5.4,9.1-9.6,12.2c-0.4-6.4-2-12.8-4.8-18.6c-1.2-2.5-3.2-5.3-6-5.1c1.4-0.1,1.9,13.2,1.9,14.6
			c-0.2,4.6-0.8,9.6-3.1,13.6c-2.4,4.1-5.8,7.4-8.9,11.1c-3.2,3.9-5.4,8.2-7.8,12.7c-0.1,0-0.2-0.1-0.3-0.1c-3.9-1.3-7.3-3.8-9.8-7
			c-0.7-0.9-1.3-1.9-1.8-2.9c-5.5-10.7-3.4-25.7,1.6-36.2c2.1-4.5,5-9.4,3.3-14.1c-4.9,7-9.6,14.2-12.9,22.1
			c-3.2,7.7-5.2,16-4.5,24.3c0,0.2,0,0.5,0.1,0.7c0-0.3-6.2-3.5-9-5.1c-0.6-0.3-1-0.6-1.2-0.7c-0.1,0-0.1-0.1-0.2-0.1
			c-3.2-2.6-5.9-5.8-8.1-9.3c-4.8-8-5.7-18-2.7-26.8c0.8-2.3,3.9-6.6,3.2-9c-1.4-5-7.7-2.1-9,1.2c-0.8,2.1-1.7,4.2-2.3,6.3
			c-2.2,7.4-1,15,0.4,22.4c0.1,0.5,0.2,1,0.3,1.5c-2.6-1.4-5-3.2-6.8-5.6c-3-4-4-9.1-3.8-14.1c0.2-6.6,3.1-12.7,2.8-19.2
			c-0.2-6.6-4,0.3-5,2.7c-1.2,2.8-2.8,5.4-3.6,8.4c-1.9,6.6-2.2,12.7-0.6,19.4c1.1,4.7,4.3,8.7,7.9,11.7c4.6,3.9,10.7,5.4,15.6,9.1
			c0.7,0.6,1.5,1.2,2.2,1.8c4.1,3.5,7.9,7.4,11.5,11.3c6.8,7.2,13.7,14.6,17.3,23.7c2.8,7,3.5,14.7,3,22.3
			c-0.9,13.7-4.7,26.9-9.1,39.9c-2.8,8.4-5.7,16.8-8.5,25.2c-1.4,4.2-2.8,8.4-4.2,12.6c-0.9,2.7-1,7.1-3,9.5
			c-0.2,0.2-0.3,0.4-0.5,0.5c-3.3,3-10.6,2.9-14.8,3c-5.3,0-10.6-0.4-15.7,0.5c-3.4,0.5-6.7,1.7-9.5,3.7c-2.5,1.8-5.4,5.4-7.3,7.6
			c2.9,1.1,9.9-4.9,13.5-5.5c4.7-0.8,9.2,1.2,13.6,2.7c4.7,1.6,9.3,2.2,14.2,2.4c0,0,0.1,0,0.1,0c0.1,0,0.2,0,0.4,0
			c-3.7,7.4-10,10.3-16,15.5c-1.2,1.1-2.4,2.3-4,2.8c-1.2,0.4-2.5,0.4-3.7,0.3c-8.2,0-16.7-1.6-24.5,1.8c-0.5,0.2-0.8,1-0.6,1.5
			c0.5,0.6,0.1,1.5-0.3,2c3,0.1,6.2-1.1,9.5-0.9c3.6,0.3,7.2,1.3,10.6,2.4c2.6,0.8,5.2,1.8,7.9,2.3c8.4,1.5,16.6-2.4,23-7.6
			c3.4-2.7,6.4-5.9,9.1-9.3c1.2-1.5,7.2-8.8,6.5-10.6c0.2,0.5,0.4,1.1,0.8,1.5c3.3,4.9,6,9.1,11,12.7c5,3.6,10.9,6.1,17,7.1
			c2,0.3,4,0.5,5.8,1.2c1.7,0.6,3.3,1.7,5,2.2c2.8,0.9,8.4,1,7.9-3.4c-0.2-1.5-1.2-2.8-2.3-3.8c-2.3-2.1-4.8-3.7-7.8-4.6
			c-2.1-0.7-4.6-1.2-5.7-3.1c-0.5-0.9-0.6-1.9-1.1-2.8c-0.2-0.3-0.4-0.6-0.4-0.9c0-0.3,0.1-0.6,0.2-0.9c0.4-0.9,1-2.9,1.8-4.1
			c0.2-0.3,0.4-0.6,0.7-0.8c0.9-0.6,3-0.2,4.2-0.3c3.4-0.4,6.7-1.4,9.8-2.6c0.7-0.2,1.3-0.5,2-0.7c0.7-0.2,1.4-0.2,2.2-0.3
			c5.7-0.4,10.7,0.7,15.1,4.5c4.4,3.9,8.2,10.9,14.5,11.6c0.1,0,0.2,0,0.3,0c0.7,0.1,1.4,0,2.2-0.1c1-0.1,1.9-0.4,2.9-0.4
			c1.2,0,2.3,0.5,3.4,0.9c3.5,1.2,9.8,2.9,14.6,2.7c1.3,0,2.5-0.2,3.5-0.6c-0.6-1.2-2.7-2.5-3.1-3.8c0,0,0-0.1,0-0.1
			c-1.1-3.6-6.1-7-8.7-9.6c-3.6-3.8-7.3-7.5-11-11.2c-4.4-4.4-8.9-8.7-13.6-12.9c-4.6-4.1-9.8-7.6-12.9-13
			c-5.4-9.5-6.1-22.2-4.6-32.8c1.1-7.8,3.4-15.3,5-22.9c1.5-7.1-0.1-15.7,4.7-21.4c8.8-10.5,19.3-19.4,29.2-29
			c4.9-4.8,9.7-9.7,13.9-15.2c2.4-3.1,5.3-6.6,7.2-10.5c1.2-2.5,2-5.2,1.8-7.9c0-0.3-0.1-0.5-0.1-0.8c1.9-4.4,2.6-9.6,2.9-13.7
			C278.8,172,279,166.1,276.4,160.9z"/>
		<g>
			<path class="st1" d="M133.5,355.8c-5.3,0-10.6-0.4-15.7,0.5c-3.4,0.5-6.7,1.7-9.5,3.7c-2.5,1.8-5.4,5.4-7.3,7.6
				c2.9,1.1,9.9-4.9,13.5-5.5c4.7-0.8,9.2,1.2,13.6,2.7c4.7,1.6,9.3,2.2,14.2,2.4c3.4-4.2,5.7-9.5,6.6-14.8
				c-0.2,0.2-0.3,0.4-0.5,0.5C145,355.9,137.7,355.8,133.5,355.8z"/>
			<path class="st1" d="M232.5,373.7c-0.7-2.8,1.4-5.6-0.7-8.3c-5.6-6.9-11.8-12.5-18.7-18.1c-4.9-2.8-3.5-10.4-8.3-14.6
				c-1.4-0.7-3.5-0.7-3.5,0.7c-2.7,12.1-6,23.6-8.8,35.1c0.2-0.3,0.4-0.6,0.7-0.8c0.9-0.6,3-0.2,4.2-0.3c3.4-0.4,6.7-1.4,9.8-2.6
				c0.7-0.2,1.3-0.5,2-0.7c0.7-0.2,1.4-0.2,2.2-0.3c5.7-0.4,10.7,0.7,15.1,4.5c4.4,3.9,8.2,10.9,14.5,11.6
				C237.5,378.9,234.5,376.8,232.5,373.7z"/>
			<path class="st1" d="M241.3,379.9c0.7,0.1,1.4,0,2.2-0.1c1-0.1,1.9-0.4,2.9-0.4c1.2,0,2.3,0.5,3.4,0.9c3.5,1.2,9.8,2.9,14.6,2.7
				c-8.6-3-15.4-11.2-22.7-16.2C242.1,371.3,243.1,375.8,241.3,379.9z"/>
			<path class="st1" d="M179.1,166.3c-4.9,7-9.6,14.2-12.9,22.1c-3.2,7.7-5.2,16-4.5,24.3c4.8,2.3,9.7,4.5,14.4,6.8
				c-0.7-0.9-1.3-1.9-1.8-2.9c-5.5-10.7-3.4-25.7,1.6-36.2C177.9,175.9,180.8,171,179.1,166.3z"/>
			<path class="st1" d="M151.4,207.4c-3.2-2.6-5.9-5.8-8.1-9.3c-4.8-8-5.7-18-2.7-26.8c0.8-2.3,3.9-6.6,3.2-9c-1.4-5-7.7-2.1-9,1.2
				c-0.8,2.1-1.7,4.2-2.3,6.3c-2.2,7.4-1,15,0.4,22.4c0.1,0.5,0.2,1,0.3,1.5c-2.6-1.4-5-3.2-6.8-5.6c-3-4-4-9.1-3.8-14.1
				c0.2-6.6,3.1-12.7,2.8-19.2c-0.2-6.6-4,0.3-5,2.7c-1.2,2.8-2.8,5.4-3.6,8.4c-1.9,6.6-2.2,12.7-0.6,19.4c1.1,4.7,4.3,8.7,7.9,11.7
				c4.6,3.9,10.7,5.4,15.6,9.1c0.7,0.6,1.5,1.2,2.2,1.8c3.5-0.4,7.3-0.1,10.9,0.4c-0.6-0.3-1-0.6-1.2-0.7
				C151.5,207.5,151.4,207.5,151.4,207.4z"/>
			<path class="st1" d="M276.4,160.9c-0.9-1.8-2-3.8-3.7-5c-0.9-0.6-4.2-1.4-4.3-2.7c0-0.4-0.7-0.6-0.8-0.1
				c-0.4,2.5,0.9,4.9,1.5,7.3c0.5,2.1,1.5,4,1.9,6.1c0.6,2.6,0.3,5.4,0.2,8c-0.2,4.7-0.9,9.5-2.8,13.8c-0.2,0.5-0.5,1-0.8,1.5
				c0,0,0-0.1,0-0.1c-0.3-4.6-1.4-9.1-3.2-13.3c-1.6-3.6-3.4-7.5-6.4-10.3c-1.4-1.3-2.9-2.6-4.4-3.7c-0.9-0.6-5.2-3.1-5.9-1.6
				c-0.5,1.2,3.2,5.4,3.8,6.5c2.8,4.5,5.4,9.3,6.9,14.4c1.1,3.8,1.7,7.7,1.8,11.6c0.1,2,0.1,3.9-0.5,5.8c-0.1,0.4-0.2,0.7-0.4,1.1
				c4.2-1.9,9.2-1.6,14.3-0.2c1.2-2.5,2-5.2,1.8-7.9c0-0.3-0.1-0.5-0.1-0.8c1.9-4.4,2.6-9.6,2.9-13.7
				C278.8,172,279,166.1,276.4,160.9z"/>
			<path class="st1" d="M198.1,237.2c-1.1-2.6,3.1-8.3,4.5-10.4c2.3-3.4,5-6.6,7.7-9.7c5.1-5.9,9.1-12.4,13.6-18.8
				c2.7-4,5.3-8.2,6.3-12.9c0.9-3.9,0.8-10.3-2.5-13.1c-0.1-0.1-1,5.9-1,6.2c-0.4,2.7-1.1,5.3-2.2,7.7c-2.1,4.8-5.4,9.1-9.6,12.2
				c-0.4-6.4-2-12.8-4.8-18.6c-1.2-2.5-3.2-5.3-6-5.1c1.4-0.1,1.9,13.2,1.9,14.6c-0.2,4.6-0.8,9.6-3.1,13.6
				c-2.4,4.1-5.8,7.4-8.9,11.1c-3.2,3.9-5.4,8.2-7.8,12.7c-0.1,0-0.2-0.1-0.3-0.1c3.2,5.1,7.7,8.1,12.4,10.9
				C198.2,237.3,198.1,237.3,198.1,237.2z"/>
		</g>
	</g>
	<path class="st2" d="M359.7,140.6c0-16.7-9.2-31.1-22.7-38.7c0.2-1.7,0.3-3.5,0.3-5.2c0-22.8-17.2-41.6-39.4-44.1
		c-1.3-23.4-20.6-42-44.3-42c-12.5,0-23.8,5.2-31.9,13.6c-5.4-2.3-11.4-3.7-17.6-3.7c-2.6,0-5.1,0.3-7.6,0.7
		c-8.1-8.2-19.3-13.3-31.7-13.3c-18.7,0-34.7,11.6-41.2,27.9C101.5,38.2,84.3,57,84.3,79.8c0,4.8,0.8,9.4,2.2,13.7
		c-13.7,7.6-22.9,22.1-22.9,38.8c0,16.7,9.3,31.3,22.9,38.9c-1.4,4.3-2.2,8.9-2.2,13.7c0,24.5,19.9,44.4,44.4,44.4
		c9.3,0,17.9-2.9,25-7.7c3.6,0.9,7.3,1.5,11.1,1.5c17.6,0,32.7-10.2,39.9-25.1c8.1,8.9,19.8,14.5,32.7,14.5c1.5,0,3-0.1,4.4-0.2
		c7.9,12.2,21.6,20.2,37.2,20.2c24.5,0,44.4-19.9,44.4-44.4c0-1.3-0.1-2.6-0.2-3.9C344,180.4,359.7,162.3,359.7,140.6z"/>
	<path class="st3" d="M88.4,84.2c-0.1,0.8-0.2,1.7-0.2,2.6c0.2-0.1,0.4-0.3,0.6-0.4C88.5,85.7,88.4,85,88.4,84.2z"/>
	<path class="st4" d="M72.7,122.2c-0.2,1.6-0.3,3.2-0.3,4.9c0,10.8,4.6,20.4,11.8,27.3c0.3-2.8,0.9-5.5,1.8-8.1
		C78.8,140.4,73.9,131.9,72.7,122.2z"/>
	<path class="st5" d="M271.6,154.5c-5.3,14.4-19,24.7-35.2,24.7c-0.3,0-0.6,0-0.9,0c5.7,13.5,19,23,34.6,23
		c17.9,0,32.8-12.5,36.6-29.3c-0.9,0.1-1.9,0.1-2.8,0.1C290.1,173,278.1,165.5,271.6,154.5z"/>
	<path class="st4" d="M303.9,163.3c-12.6,0-23.7-6.2-30.5-15.7c0.3-1.9,0.5-3.9,0.5-5.9c0-1.6-0.1-3.3-0.3-4.9
		c-2.4,18.4-18.1,32.7-37.2,32.7c-7.3,0-14.2-2.1-19.9-5.8c8.7-5.5,15.1-14.5,17-25c8.2,2.5,17.3,2.3,25.9-1.4
		c11.5-5,19.2-15,21.8-26.4c-4.4,9.9-12.5,18.3-23.2,22.9c-10.8,4.6-22.4,4.7-32.6,1.1c1.8,1.1,3.6,2,5.5,2.7c-5.9,13-19,22-34.2,22
		c-15.4,0-28.6-9.2-34.4-22.5c4.7-2,9-5,12.4-8.7c-6.7,5-15,8.1-24,8.1c-22.1,0-40.1-18-40.1-40.1c0-0.1,0-0.3,0-0.4
		c-0.4,2.2-0.6,4.4-0.6,6.7c0,20.7,16.8,37.5,37.5,37.5c4.3,0,8.3-0.7,12.2-2.1c2.5,14.9,13.9,26.9,28.5,30.2
		c-6.9,8.5-17.4,13.9-29.1,13.9c-19.1,0-34.8-14.2-37.2-32.7c-0.2,1.6-0.3,3.2-0.3,4.9c0,15.2,9.1,28.3,22.1,34.2
		c-6.2,4.5-13.8,7.2-22.1,7.2c-19.1,0-34.8-14.2-37.2-32.7c-0.2,1.6-0.3,3.2-0.3,4.9c0,20.7,16.8,37.5,37.5,37.5
		c12,0,22.7-5.7,29.6-14.4c2.6,0.6,5.2,0.9,8,0.9c15.5,0,28.8-9.4,34.5-22.8c1,0.1,2,0.2,3,0.2c4.4,0,8.6-0.8,12.5-2.2
		c6.1,6.5,14.5,10.9,23.9,11.7c2.3,18.5,18.1,32.8,37.2,32.8c20.7,0,37.5-16.8,37.5-37.5c0-0.5-0.1-1-0.1-1.5
		c19-1.9,33.8-17.9,33.8-37.3c0-1.6-0.1-3.3-0.3-4.9C338.7,149,322.9,163.3,303.9,163.3z M270.1,202.1c-15.6,0-28.9-9.5-34.6-23
		c0.3,0,0.6,0,0.9,0c16.2,0,30-10.3,35.2-24.7c6.5,11,18.5,18.5,32.3,18.5c1,0,1.9-0.1,2.8-0.1C302.9,189.6,288,202.1,270.1,202.1z"
		/>
	<path class="st5" d="M121.4,195.9c8.3,0,15.9-2.7,22.1-7.2c-13-5.9-22.1-19-22.1-34.2c0-1.6,0.1-3.3,0.3-4.9
		c2.4,18.4,18.1,32.7,37.2,32.7c11.8,0,22.2-5.4,29.1-13.9c-14.7-3.4-26-15.3-28.5-30.2c-3.8,1.3-7.9,2.1-12.2,2.1
		c-20.7,0-37.5-16.8-37.5-37.5c0-2.3,0.2-4.5,0.6-6.7c0,0.1,0,0.3,0,0.4c0,22.1,18,40.1,40.1,40.1c9,0,17.3-3,24-8.1
		c-3.5,3.7-7.7,6.7-12.4,8.7c5.8,13.2,19,22.5,34.4,22.5c15.2,0,28.3-9.1,34.2-22c-1.9-0.8-3.7-1.7-5.5-2.7
		c10.3,3.6,21.9,3.5,32.6-1.1c10.8-4.6,18.8-13,23.2-22.9c-2.5,11.4-10.3,21.4-21.8,26.4c-8.5,3.7-17.6,3.9-25.9,1.4
		c-1.9,10.5-8.2,19.5-17,25c5.8,3.6,12.6,5.8,19.9,5.8c19.1,0,34.8-14.2,37.2-32.7c0.2,1.6,0.3,3.2,0.3,4.9c0,2-0.2,4-0.5,5.9
		c6.8,9.5,17.9,15.7,30.5,15.7c19.1,0,34.8-14.2,37.2-32.7c0.2-1.6,0.3-3.2,0.3-4.9c0-15.2-9.1-28.3-22.1-34.2
		c0.1-0.8,0.1-1.6,0.1-2.5c0-19.7-15.2-35.8-34.5-37.4c0-0.1,0-0.1,0-0.2c0-20.7-16.8-37.5-37.5-37.5c-11.2,0-21.2,4.9-28.1,12.7
		c-6.3-4.9-14.3-7.8-22.9-7.8c-4.9,0-9.6,1-13.9,2.7c-6.5-5.3-14.7-8.4-23.7-8.4c-17.7,0-32.6,12.3-36.5,28.9
		C103.2,43.6,88,59.7,88,79.4c0,1.6,0.1,3.3,0.3,4.9c0.1,0.7,0.2,1.4,0.3,2.1c-0.2,0.1-0.4,0.3-0.6,0.4
		c-9.6,6.8-15.8,17.9-15.8,30.6c0,1.6,0.1,3.3,0.3,4.9c1.3,9.7,6.1,18.2,13.3,24.1c-0.9,2.6-1.5,5.3-1.8,8.1c-0.1,1.3-0.2,2.7-0.2,4
		c0,1.6,0.1,3.3,0.3,4.9C86.6,181.7,102.4,195.9,121.4,195.9z"/>
	<path class="st6" d="M137.3,51.1c-0.3-1.2-0.6-2.4-0.8-3.7c-0.1,1.1-0.2,2.1-0.2,3.2c0,0,0,0.1,0,0.1c0,0.3,0,0.6,0,0.9
		C136.7,51.5,137,51.3,137.3,51.1z"/>
</g>
</svg>
