<?xml version="1.0" encoding="utf-8"?>
<!-- Generator: Adobe Illustrator 22.1.0, SVG Export Plug-In . SVG Version: 6.00 Build 0)  -->
<svg version="1.1" id="Layer_1" xmlns="http://www.w3.org/2000/svg" xmlns:xlink="http://www.w3.org/1999/xlink" x="0px" y="0px"
	 viewBox="0 0 400 400" style="enable-background:new 0 0 400 400;" xml:space="preserve">
<style type="text/css">
	.st0{fill:#895D3F;}
	.st1{fill:#724C33;}
</style>
<g>
	<path class="st0" d="M282.8,148.3c-1-1.9-2.1-4-3.9-5.2c-0.9-0.6-4.4-1.5-4.5-2.8c0-0.5-0.8-0.6-0.9-0.1c-0.5,2.6,0.9,5.1,1.6,7.7
		c0.6,2.2,1.6,4.2,2,6.5c0.6,2.7,0.3,5.6,0.2,8.4c-0.2,5-0.9,10-2.9,14.5c-0.2,0.6-0.5,1.1-0.8,1.6c0,0,0-0.1,0-0.1
		c-0.3-4.8-1.4-9.6-3.4-14c-1.7-3.8-3.6-7.9-6.7-10.8c-1.4-1.4-3-2.8-4.6-3.9c-1-0.7-5.5-3.3-6.2-1.7c-0.5,1.3,3.3,5.7,4,6.8
		c3,4.8,5.7,9.7,7.3,15.2c1.2,3.9,1.7,8.1,1.9,12.2c0.1,2.1,0.1,4.1-0.5,6.1c-0.1,0.4-0.2,0.8-0.4,1.2c-2.1,5.4-7.7,9-11.9,12.6
		c-5.8,4.9-12.4,8.9-18.7,13.1c-4.9,3.2-9.8,6.7-14.4,10.4c-2.4,1.9-4.7,3.8-6.9,5.8c-1.9,1.7-4.1,4.8-6.4,5.7
		c-1.7-2.4-3.1-4.8-5.1-6.9c-0.4-0.5-0.9-1-1.2-1.5c0-0.1-0.1-0.1-0.1-0.2c-1.1-2.8,3.3-8.7,4.7-11c2.4-3.6,5.2-6.9,8.1-10.2
		c5.4-6.3,9.6-13,14.3-19.8c2.9-4.2,5.6-8.6,6.7-13.6c0.9-4.1,0.9-10.9-2.7-13.8c-0.1-0.1-1,6.2-1.1,6.5c-0.4,2.8-1.2,5.5-2.3,8.1
		c-2.2,5-5.7,9.6-10.1,12.8c-0.4-6.8-2.1-13.5-5-19.6c-1.3-2.7-3.4-5.6-6.4-5.4c1.4-0.1,2,13.9,2,15.3c-0.2,4.8-0.8,10.1-3.3,14.3
		c-2.5,4.3-6.1,7.8-9.3,11.6c-3.4,4.1-5.7,8.7-8.2,13.3c-0.1,0-0.2-0.1-0.3-0.1c-4.1-1.4-7.7-4-10.3-7.4c-0.7-1-1.4-2-1.9-3
		c-5.7-11.2-3.5-27.1,1.7-38.1c2.2-4.7,5.3-9.9,3.5-14.8c-5.2,7.4-10.1,14.9-13.6,23.2c-3.4,8.1-5.4,16.8-4.7,25.5
		c0,0.2,0,0.5,0.1,0.7c0-0.3-6.6-3.7-9.4-5.3c-0.6-0.3-1-0.6-1.2-0.8c-0.1,0-0.1-0.1-0.2-0.1c-3.4-2.8-6.2-6.1-8.5-9.8
		c-5-8.4-6-18.9-2.9-28.2c0.8-2.4,4.1-6.9,3.4-9.5c-1.5-5.3-8.1-2.2-9.5,1.3c-0.9,2.2-1.7,4.4-2.4,6.7c-2.3,7.8-1.1,15.8,0.5,23.6
		c0.1,0.5,0.2,1.1,0.3,1.6c-2.8-1.4-5.3-3.4-7.1-5.9c-3.1-4.2-4.2-9.6-4-14.8c0.3-6.9,3.2-13.3,3-20.2c-0.3-6.9-4.2,0.3-5.3,2.8
		c-1.3,3-2.9,5.7-3.8,8.8c-2,6.9-2.4,13.3-0.7,20.4c1.2,4.9,4.5,9.1,8.3,12.3c4.8,4.1,11.3,5.7,16.4,9.6c0.8,0.6,1.6,1.2,2.3,1.9
		c4.3,3.6,8.3,7.8,12.1,11.9c7.1,7.5,14.4,15.3,18.2,25c2.9,7.4,3.6,15.5,3.1,23.5c-0.9,14.4-5,28.3-9.5,42c-3,8.8-6,17.7-8.9,26.5
		c-1.5,4.4-3,8.8-4.5,13.3c-1,2.9-1.1,7.5-3.2,9.9c-0.2,0.2-0.3,0.4-0.5,0.5c-3.5,3.1-11.2,3.1-15.6,3.1c-5.5,0-11.1-0.4-16.6,0.5
		c-3.5,0.6-7.1,1.8-10,3.8c-2.7,1.9-5.7,5.6-7.7,8c3.1,1.2,10.5-5.2,14.2-5.8c5-0.8,9.7,1.2,14.3,2.8c4.9,1.7,9.8,2.3,14.9,2.6
		c0,0,0.1,0,0.1,0c0.1,0,0.2,0,0.4,0c-3.9,7.8-10.5,10.8-16.8,16.3c-1.3,1.1-2.5,2.4-4.2,2.9c-1.2,0.4-2.6,0.4-3.9,0.3
		c-8.6,0-17.6-1.7-25.7,1.9c-0.5,0.2-0.8,1.1-0.6,1.6c0.5,0.7,0.1,1.6-0.3,2.1c3.2,0.1,6.5-1.2,10-0.9c3.8,0.3,7.6,1.3,11.2,2.5
		c2.7,0.9,5.5,1.9,8.3,2.4c8.8,1.6,17.5-2.6,24.2-8c3.6-2.9,6.8-6.2,9.6-9.8c1.2-1.6,7.5-9.3,6.9-11.2c0.2,0.6,0.5,1.1,0.8,1.6
		c3.4,5.2,6.3,9.6,11.6,13.4c5.3,3.8,11.5,6.5,17.9,7.5c2.1,0.3,4.2,0.5,6.1,1.2c1.8,0.7,3.5,1.8,5.3,2.3c2.9,0.9,8.8,1.1,8.3-3.5
		c-0.2-1.6-1.3-3-2.5-4c-2.5-2.2-5-3.9-8.2-4.9c-2.2-0.7-4.9-1.2-6-3.3c-0.5-0.9-0.7-2-1.2-2.9c-0.2-0.3-0.4-0.6-0.4-0.9
		c0-0.3,0.1-0.6,0.3-0.9c0.5-0.9,1.1-3.1,1.9-4.3c0.2-0.4,0.5-0.7,0.7-0.8c0.9-0.6,3.2-0.2,4.4-0.3c3.6-0.4,7-1.5,10.3-2.7
		c0.7-0.3,1.4-0.5,2.1-0.7c0.7-0.2,1.5-0.3,2.3-0.3c6-0.4,11.3,0.7,15.9,4.7c4.7,4.1,8.6,11.5,15.2,12.2c0.1,0,0.2,0,0.4,0
		c0.7,0.1,1.5,0,2.3-0.1c1-0.2,2-0.5,3-0.4c1.2,0,2.4,0.5,3.5,0.9c3.7,1.3,10.3,3,15.3,2.9c1.4,0,2.7-0.2,3.7-0.6
		c-0.6-1.3-2.9-2.7-3.2-4c0,0,0-0.1,0-0.1c-1.1-3.8-6.4-7.3-9.1-10.1c-3.8-4-7.7-7.9-11.6-11.8c-4.7-4.6-9.4-9.2-14.3-13.6
		c-4.8-4.3-10.3-8-13.6-13.7c-5.7-10-6.4-23.3-4.8-34.5c1.1-8.2,3.6-16.1,5.3-24.1c1.5-7.4-0.1-16.5,4.9-22.5
		c9.3-11.1,20.4-20.4,30.7-30.5c5.2-5,10.2-10.3,14.6-15.9c2.5-3.2,5.6-7,7.5-11c1.3-2.7,2.1-5.4,1.9-8.3c0-0.3-0.1-0.5-0.2-0.8
		c2-4.6,2.8-10.1,3.1-14.4C285.4,160,285.6,153.8,282.8,148.3z"/>
	<g>
		<path class="st1" d="M132.6,353.4c-5.5,0-11.1-0.4-16.6,0.5c-3.5,0.6-7.1,1.8-10,3.8c-2.7,1.9-5.7,5.6-7.7,8
			c3.1,1.2,10.5-5.2,14.2-5.8c5-0.8,9.7,1.2,14.3,2.8c4.9,1.7,9.8,2.3,14.9,2.6c3.6-4.4,6-10,7-15.6c-0.2,0.2-0.3,0.4-0.5,0.5
			C144.6,353.4,137,353.3,132.6,353.4z"/>
		<path class="st1" d="M236.7,372.2c-0.7-2.9,1.5-5.8-0.7-8.8c-5.8-7.3-12.4-13.1-19.7-19c-5.1-2.9-3.7-11-8.8-15.3
			c-1.5-0.7-3.7-0.7-3.7,0.7c-2.8,12.8-6.4,24.8-9.2,36.9c0.2-0.4,0.5-0.7,0.7-0.8c0.9-0.6,3.2-0.2,4.4-0.3c3.6-0.4,7-1.5,10.3-2.7
			c0.7-0.3,1.4-0.5,2.1-0.7c0.7-0.2,1.5-0.3,2.3-0.3c6-0.4,11.3,0.7,15.9,4.7c4.7,4.1,8.6,11.5,15.2,12.2
			C242,377.6,238.8,375.5,236.7,372.2z"/>
		<path class="st1" d="M245.9,378.7c0.7,0.1,1.5,0,2.3-0.1c1-0.2,2-0.5,3-0.4c1.2,0,2.4,0.5,3.5,0.9c3.7,1.3,10.3,3,15.3,2.9
			c-9-3.1-16.2-11.8-23.9-17.1C246.8,369.6,247.9,374.4,245.9,378.7z"/>
		<path class="st1" d="M180.5,154c-5.2,7.4-10.1,14.9-13.6,23.2c-3.4,8.1-5.4,16.8-4.7,25.5c5.1,2.4,10.2,4.7,15.1,7.1
			c-0.7-1-1.4-2-1.9-3c-5.7-11.2-3.5-27.1,1.7-38.1C179.3,164.1,182.3,158.9,180.5,154z"/>
		<path class="st1" d="M151.3,197.3c-3.4-2.8-6.2-6.1-8.5-9.8c-5-8.4-6-18.9-2.9-28.2c0.8-2.4,4.1-6.9,3.4-9.5
			c-1.5-5.3-8.1-2.2-9.5,1.3c-0.9,2.2-1.7,4.4-2.4,6.7c-2.3,7.8-1.1,15.8,0.5,23.6c0.1,0.5,0.2,1.1,0.3,1.6
			c-2.8-1.4-5.3-3.4-7.1-5.9c-3.1-4.2-4.2-9.6-4-14.8c0.3-6.9,3.2-13.3,3-20.2c-0.3-6.9-4.2,0.3-5.3,2.8c-1.3,3-2.9,5.7-3.8,8.8
			c-2,6.9-2.4,13.3-0.7,20.4c1.2,4.9,4.5,9.1,8.3,12.3c4.8,4.1,11.3,5.7,16.4,9.6c0.8,0.6,1.6,1.2,2.3,1.9c3.7-0.4,7.7-0.1,11.4,0.4
			c-0.6-0.3-1-0.6-1.2-0.8C151.4,197.3,151.4,197.3,151.3,197.3z"/>
		<path class="st1" d="M282.8,148.3c-1-1.9-2.1-4-3.9-5.2c-0.9-0.6-4.4-1.5-4.5-2.8c0-0.5-0.8-0.6-0.9-0.1c-0.5,2.6,0.9,5.1,1.6,7.7
			c0.6,2.2,1.6,4.2,2,6.5c0.6,2.7,0.3,5.6,0.2,8.4c-0.2,5-0.9,10-2.9,14.5c-0.2,0.6-0.5,1.1-0.8,1.6c0,0,0-0.1,0-0.1
			c-0.3-4.8-1.4-9.6-3.4-14c-1.7-3.8-3.6-7.9-6.7-10.8c-1.4-1.4-3-2.8-4.6-3.9c-1-0.7-5.5-3.3-6.2-1.7c-0.5,1.3,3.3,5.7,4,6.8
			c3,4.8,5.7,9.7,7.3,15.2c1.2,3.9,1.7,8.1,1.9,12.2c0.1,2.1,0.1,4.1-0.5,6.1c-0.1,0.4-0.2,0.8-0.4,1.2c4.4-2,9.7-1.6,15-0.2
			c1.3-2.7,2.1-5.4,1.9-8.3c0-0.3-0.1-0.5-0.2-0.8c2-4.6,2.8-10.1,3.1-14.4C285.4,160,285.6,153.8,282.8,148.3z"/>
		<path class="st1" d="M200.5,228.6c-1.1-2.8,3.3-8.7,4.7-11c2.4-3.6,5.2-6.9,8.1-10.2c5.4-6.3,9.6-13,14.3-19.8
			c2.9-4.2,5.6-8.6,6.7-13.6c0.9-4.1,0.9-10.9-2.7-13.8c-0.1-0.1-1,6.2-1.1,6.5c-0.4,2.8-1.2,5.5-2.3,8.1c-2.2,5-5.7,9.6-10.1,12.8
			c-0.4-6.8-2.1-13.5-5-19.6c-1.3-2.7-3.4-5.6-6.4-5.4c1.4-0.1,2,13.9,2,15.3c-0.2,4.8-0.8,10.1-3.3,14.3c-2.5,4.3-6.1,7.8-9.3,11.6
			c-3.4,4.1-5.7,8.7-8.2,13.3c-0.1,0-0.2-0.1-0.3-0.1c3.3,5.3,8.1,8.6,13.1,11.5C200.6,228.7,200.5,228.6,200.5,228.6z"/>
	</g>
</g>
</svg>
